<mxfile host="app.diagrams.net" modified="2023-12-17T10:18:09.414Z" agent="Mozilla/5.0 (Macintosh; Intel Mac OS X 10_15_7) AppleWebKit/605.1.15 (KHTML, like Gecko) Version/17.1 Safari/605.1.15" etag="sInzStAI3rXcNbr1x5W2" version="22.1.11" type="device">
  <diagram name="Page-1" id="3LCgTbuBGVVmAcbPwwdk">
    <mxGraphModel dx="1872" dy="1924" grid="1" gridSize="10" guides="1" tooltips="1" connect="1" arrows="1" fold="1" page="1" pageScale="1" pageWidth="827" pageHeight="1169" math="0" shadow="0">
      <root>
        <mxCell id="0" />
        <mxCell id="1" parent="0" />
        <mxCell id="5P5HyQvD5sl2rqRKySWm-3" value="Cinema Application" style="swimlane;whiteSpace=wrap;html=1;fillColor=#ffcd28;gradientColor=#ffa500;strokeColor=#d79b00;" vertex="1" parent="1">
          <mxGeometry x="60" y="50" width="923" height="840" as="geometry" />
        </mxCell>
        <mxCell id="5P5HyQvD5sl2rqRKySWm-38" style="edgeStyle=orthogonalEdgeStyle;rounded=0;orthogonalLoop=1;jettySize=auto;html=1;exitX=0.5;exitY=0;exitDx=0;exitDy=0;entryX=0;entryY=0.5;entryDx=0;entryDy=0;endArrow=open;endFill=0;dashed=1;" edge="1" parent="5P5HyQvD5sl2rqRKySWm-3" source="5P5HyQvD5sl2rqRKySWm-8" target="5P5HyQvD5sl2rqRKySWm-32">
          <mxGeometry relative="1" as="geometry">
            <Array as="points">
              <mxPoint x="65" y="40" />
              <mxPoint x="393" y="40" />
            </Array>
          </mxGeometry>
        </mxCell>
        <mxCell id="5P5HyQvD5sl2rqRKySWm-39" value="&amp;lt;&amp;lt;include&amp;gt;&amp;gt;" style="edgeLabel;html=1;align=center;verticalAlign=middle;resizable=0;points=[];" vertex="1" connectable="0" parent="5P5HyQvD5sl2rqRKySWm-38">
          <mxGeometry x="0.0071" y="-2" relative="1" as="geometry">
            <mxPoint y="-1" as="offset" />
          </mxGeometry>
        </mxCell>
        <mxCell id="5P5HyQvD5sl2rqRKySWm-8" value="Buy Ticket" style="ellipse;whiteSpace=wrap;html=1;fillColor=#e6d0de;gradientColor=#d5739d;strokeColor=#996185;" vertex="1" parent="5P5HyQvD5sl2rqRKySWm-3">
          <mxGeometry x="20" y="60" width="90" height="60" as="geometry" />
        </mxCell>
        <mxCell id="5P5HyQvD5sl2rqRKySWm-34" style="edgeStyle=orthogonalEdgeStyle;rounded=0;orthogonalLoop=1;jettySize=auto;html=1;exitX=0.5;exitY=0;exitDx=0;exitDy=0;entryX=1;entryY=0.5;entryDx=0;entryDy=0;dashed=1;endArrow=open;endFill=0;" edge="1" parent="5P5HyQvD5sl2rqRKySWm-3" source="5P5HyQvD5sl2rqRKySWm-9" target="5P5HyQvD5sl2rqRKySWm-15">
          <mxGeometry relative="1" as="geometry" />
        </mxCell>
        <mxCell id="5P5HyQvD5sl2rqRKySWm-35" value="&amp;lt;&amp;lt;include&amp;gt;&amp;gt;" style="edgeLabel;html=1;align=center;verticalAlign=middle;resizable=0;points=[];" vertex="1" connectable="0" parent="5P5HyQvD5sl2rqRKySWm-34">
          <mxGeometry x="0.1294" y="1" relative="1" as="geometry">
            <mxPoint as="offset" />
          </mxGeometry>
        </mxCell>
        <mxCell id="5P5HyQvD5sl2rqRKySWm-55" style="edgeStyle=orthogonalEdgeStyle;rounded=0;orthogonalLoop=1;jettySize=auto;html=1;exitX=0.5;exitY=0;exitDx=0;exitDy=0;entryX=0.5;entryY=1;entryDx=0;entryDy=0;endArrow=block;endFill=0;" edge="1" parent="5P5HyQvD5sl2rqRKySWm-3" source="5P5HyQvD5sl2rqRKySWm-37" target="5P5HyQvD5sl2rqRKySWm-9">
          <mxGeometry relative="1" as="geometry" />
        </mxCell>
        <mxCell id="5P5HyQvD5sl2rqRKySWm-56" style="edgeStyle=orthogonalEdgeStyle;rounded=0;orthogonalLoop=1;jettySize=auto;html=1;exitX=1;exitY=0.5;exitDx=0;exitDy=0;entryX=0;entryY=0.5;entryDx=0;entryDy=0;endArrow=block;endFill=0;" edge="1" parent="5P5HyQvD5sl2rqRKySWm-3" source="5P5HyQvD5sl2rqRKySWm-36" target="5P5HyQvD5sl2rqRKySWm-9">
          <mxGeometry relative="1" as="geometry" />
        </mxCell>
        <mxCell id="5P5HyQvD5sl2rqRKySWm-9" value="Edit Session or Movie" style="ellipse;whiteSpace=wrap;html=1;fillColor=#e6d0de;gradientColor=#d5739d;strokeColor=#996185;" vertex="1" parent="5P5HyQvD5sl2rqRKySWm-3">
          <mxGeometry x="853" y="270" width="90" height="60" as="geometry" />
        </mxCell>
        <mxCell id="5P5HyQvD5sl2rqRKySWm-41" style="edgeStyle=orthogonalEdgeStyle;rounded=0;orthogonalLoop=1;jettySize=auto;html=1;entryX=1;entryY=1;entryDx=0;entryDy=0;dashed=1;endArrow=open;endFill=0;exitX=1;exitY=0.5;exitDx=0;exitDy=0;" edge="1" parent="5P5HyQvD5sl2rqRKySWm-3" source="5P5HyQvD5sl2rqRKySWm-84" target="5P5HyQvD5sl2rqRKySWm-32">
          <mxGeometry relative="1" as="geometry">
            <mxPoint x="250" y="230" as="sourcePoint" />
            <Array as="points">
              <mxPoint x="518" y="120" />
              <mxPoint x="518" y="190" />
              <mxPoint x="515" y="190" />
            </Array>
          </mxGeometry>
        </mxCell>
        <mxCell id="5P5HyQvD5sl2rqRKySWm-42" value="&amp;lt;&amp;lt;include&amp;gt;&amp;gt;" style="edgeLabel;html=1;align=center;verticalAlign=middle;resizable=0;points=[];" vertex="1" connectable="0" parent="5P5HyQvD5sl2rqRKySWm-41">
          <mxGeometry x="0.3063" y="2" relative="1" as="geometry">
            <mxPoint as="offset" />
          </mxGeometry>
        </mxCell>
        <mxCell id="5P5HyQvD5sl2rqRKySWm-10" value="Return Ticket" style="ellipse;whiteSpace=wrap;html=1;fillColor=#e6d0de;gradientColor=#d5739d;strokeColor=#996185;" vertex="1" parent="5P5HyQvD5sl2rqRKySWm-3">
          <mxGeometry x="20" y="140" width="90" height="60" as="geometry" />
        </mxCell>
        <mxCell id="5P5HyQvD5sl2rqRKySWm-33" value="&amp;lt;&amp;lt;include&amp;gt;&amp;gt;" style="edgeStyle=orthogonalEdgeStyle;rounded=0;orthogonalLoop=1;jettySize=auto;html=1;exitX=1;exitY=0.5;exitDx=0;exitDy=0;entryX=0.5;entryY=1;entryDx=0;entryDy=0;dashed=1;endArrow=open;endFill=0;" edge="1" parent="5P5HyQvD5sl2rqRKySWm-3" source="5P5HyQvD5sl2rqRKySWm-90" target="5P5HyQvD5sl2rqRKySWm-32">
          <mxGeometry relative="1" as="geometry">
            <Array as="points">
              <mxPoint x="260" y="565" />
            </Array>
          </mxGeometry>
        </mxCell>
        <mxCell id="5P5HyQvD5sl2rqRKySWm-11" value="View Seats" style="ellipse;whiteSpace=wrap;html=1;fillColor=#e6d0de;gradientColor=#d5739d;strokeColor=#996185;" vertex="1" parent="5P5HyQvD5sl2rqRKySWm-3">
          <mxGeometry x="20" y="230" width="90" height="60" as="geometry" />
        </mxCell>
        <mxCell id="5P5HyQvD5sl2rqRKySWm-47" style="edgeStyle=orthogonalEdgeStyle;rounded=0;orthogonalLoop=1;jettySize=auto;html=1;exitX=1;exitY=0.5;exitDx=0;exitDy=0;entryX=1;entryY=0.5;entryDx=0;entryDy=0;dashed=1;endArrow=open;endFill=0;" edge="1" parent="5P5HyQvD5sl2rqRKySWm-3" source="5P5HyQvD5sl2rqRKySWm-13" target="5P5HyQvD5sl2rqRKySWm-32">
          <mxGeometry relative="1" as="geometry">
            <Array as="points">
              <mxPoint x="110" y="470" />
              <mxPoint x="261" y="470" />
              <mxPoint x="261" y="465" />
              <mxPoint x="640" y="465" />
              <mxPoint x="640" y="525" />
            </Array>
          </mxGeometry>
        </mxCell>
        <mxCell id="5P5HyQvD5sl2rqRKySWm-13" value="Save" style="ellipse;whiteSpace=wrap;html=1;fillColor=#e6d0de;gradientColor=#d5739d;strokeColor=#996185;" vertex="1" parent="5P5HyQvD5sl2rqRKySWm-3">
          <mxGeometry x="20" y="330" width="90" height="60" as="geometry" />
        </mxCell>
        <mxCell id="5P5HyQvD5sl2rqRKySWm-14" value="Exit" style="ellipse;whiteSpace=wrap;html=1;fillColor=#e6d0de;gradientColor=#d5739d;strokeColor=#996185;" vertex="1" parent="5P5HyQvD5sl2rqRKySWm-3">
          <mxGeometry x="20" y="760" width="90" height="60" as="geometry" />
        </mxCell>
        <mxCell id="5P5HyQvD5sl2rqRKySWm-23" style="edgeStyle=orthogonalEdgeStyle;rounded=0;orthogonalLoop=1;jettySize=auto;html=1;exitX=0;exitY=0.5;exitDx=0;exitDy=0;dashed=1;endArrow=open;endFill=0;" edge="1" parent="5P5HyQvD5sl2rqRKySWm-3" source="5P5HyQvD5sl2rqRKySWm-15" target="5P5HyQvD5sl2rqRKySWm-20">
          <mxGeometry relative="1" as="geometry" />
        </mxCell>
        <mxCell id="5P5HyQvD5sl2rqRKySWm-24" value="&amp;lt;&amp;lt;include&amp;gt;&amp;gt;" style="edgeLabel;html=1;align=center;verticalAlign=middle;resizable=0;points=[];" vertex="1" connectable="0" parent="5P5HyQvD5sl2rqRKySWm-23">
          <mxGeometry x="-0.1263" y="3" relative="1" as="geometry">
            <mxPoint x="-1" as="offset" />
          </mxGeometry>
        </mxCell>
        <mxCell id="5P5HyQvD5sl2rqRKySWm-15" value="Log in" style="ellipse;whiteSpace=wrap;html=1;fillColor=#fff2cc;gradientColor=#ffd966;strokeColor=#d6b656;" vertex="1" parent="5P5HyQvD5sl2rqRKySWm-3">
          <mxGeometry x="783" y="40" width="90" height="60" as="geometry" />
        </mxCell>
        <mxCell id="5P5HyQvD5sl2rqRKySWm-25" value="&amp;lt;&amp;lt;extend&amp;gt;&amp;gt;" style="edgeStyle=orthogonalEdgeStyle;rounded=0;orthogonalLoop=1;jettySize=auto;html=1;exitX=1;exitY=0.5;exitDx=0;exitDy=0;entryX=0.5;entryY=1;entryDx=0;entryDy=0;endArrow=open;endFill=0;dashed=1;" edge="1" parent="5P5HyQvD5sl2rqRKySWm-3" source="5P5HyQvD5sl2rqRKySWm-21" target="5P5HyQvD5sl2rqRKySWm-15">
          <mxGeometry relative="1" as="geometry" />
        </mxCell>
        <mxCell id="5P5HyQvD5sl2rqRKySWm-21" value="Display Log in Error" style="ellipse;whiteSpace=wrap;html=1;" vertex="1" parent="5P5HyQvD5sl2rqRKySWm-3">
          <mxGeometry x="583" y="110" width="91" height="60" as="geometry" />
        </mxCell>
        <mxCell id="5P5HyQvD5sl2rqRKySWm-20" value="Verify Password" style="ellipse;whiteSpace=wrap;html=1;" vertex="1" parent="5P5HyQvD5sl2rqRKySWm-3">
          <mxGeometry x="583" y="30" width="90" height="60" as="geometry" />
        </mxCell>
        <mxCell id="5P5HyQvD5sl2rqRKySWm-32" value="CSV" style="ellipse;whiteSpace=wrap;html=1;fillColor=#f5f5f5;gradientColor=#b3b3b3;strokeColor=#666666;" vertex="1" parent="5P5HyQvD5sl2rqRKySWm-3">
          <mxGeometry x="413" y="485" width="120" height="80" as="geometry" />
        </mxCell>
        <mxCell id="5P5HyQvD5sl2rqRKySWm-37" value="Session" style="ellipse;whiteSpace=wrap;html=1;fillColor=#d5e8d4;gradientColor=#97d077;strokeColor=#82b366;" vertex="1" parent="5P5HyQvD5sl2rqRKySWm-3">
          <mxGeometry x="713" y="520" width="120" height="80" as="geometry" />
        </mxCell>
        <mxCell id="5P5HyQvD5sl2rqRKySWm-36" value="Flim" style="ellipse;whiteSpace=wrap;html=1;fillColor=#d5e8d4;gradientColor=#97d077;strokeColor=#82b366;" vertex="1" parent="5P5HyQvD5sl2rqRKySWm-3">
          <mxGeometry x="703" y="260" width="120" height="80" as="geometry" />
        </mxCell>
        <mxCell id="5P5HyQvD5sl2rqRKySWm-51" value="" style="edgeStyle=orthogonalEdgeStyle;rounded=0;orthogonalLoop=1;jettySize=auto;html=1;endArrow=block;endFill=0;" edge="1" parent="5P5HyQvD5sl2rqRKySWm-3" source="5P5HyQvD5sl2rqRKySWm-49" target="5P5HyQvD5sl2rqRKySWm-14">
          <mxGeometry relative="1" as="geometry" />
        </mxCell>
        <mxCell id="5P5HyQvD5sl2rqRKySWm-54" value="" style="edgeStyle=orthogonalEdgeStyle;rounded=0;orthogonalLoop=1;jettySize=auto;html=1;entryX=1;entryY=0;entryDx=0;entryDy=0;dashed=1;endArrow=open;endFill=0;" edge="1" parent="5P5HyQvD5sl2rqRKySWm-3" source="5P5HyQvD5sl2rqRKySWm-49" target="5P5HyQvD5sl2rqRKySWm-32">
          <mxGeometry relative="1" as="geometry">
            <mxPoint x="300" y="60" as="targetPoint" />
            <Array as="points">
              <mxPoint x="200" y="735" />
              <mxPoint x="300" y="735" />
              <mxPoint x="300" y="497" />
            </Array>
          </mxGeometry>
        </mxCell>
        <mxCell id="5P5HyQvD5sl2rqRKySWm-49" value="Yes" style="ellipse;whiteSpace=wrap;html=1;" vertex="1" parent="5P5HyQvD5sl2rqRKySWm-3">
          <mxGeometry x="170" y="770" width="60" height="50" as="geometry" />
        </mxCell>
        <mxCell id="5P5HyQvD5sl2rqRKySWm-52" value="" style="edgeStyle=orthogonalEdgeStyle;rounded=0;orthogonalLoop=1;jettySize=auto;html=1;entryX=1;entryY=0.5;entryDx=0;entryDy=0;endArrow=block;endFill=0;" edge="1" parent="5P5HyQvD5sl2rqRKySWm-3" source="5P5HyQvD5sl2rqRKySWm-50" target="5P5HyQvD5sl2rqRKySWm-14">
          <mxGeometry relative="1" as="geometry" />
        </mxCell>
        <mxCell id="5P5HyQvD5sl2rqRKySWm-50" value="No(unsaved and exit)" style="ellipse;whiteSpace=wrap;html=1;" vertex="1" parent="5P5HyQvD5sl2rqRKySWm-3">
          <mxGeometry x="120" y="640" width="90" height="70" as="geometry" />
        </mxCell>
        <mxCell id="5P5HyQvD5sl2rqRKySWm-65" style="edgeStyle=orthogonalEdgeStyle;rounded=0;orthogonalLoop=1;jettySize=auto;html=1;exitX=0.5;exitY=0;exitDx=0;exitDy=0;entryX=0.5;entryY=1;entryDx=0;entryDy=0;endArrow=block;endFill=0;" edge="1" parent="5P5HyQvD5sl2rqRKySWm-3" source="5P5HyQvD5sl2rqRKySWm-59" target="5P5HyQvD5sl2rqRKySWm-37">
          <mxGeometry relative="1" as="geometry" />
        </mxCell>
        <mxCell id="5P5HyQvD5sl2rqRKySWm-78" style="edgeStyle=orthogonalEdgeStyle;rounded=0;orthogonalLoop=1;jettySize=auto;html=1;exitX=0.5;exitY=1;exitDx=0;exitDy=0;endArrow=open;endFill=0;dashed=1;entryX=0.5;entryY=1;entryDx=0;entryDy=0;" edge="1" parent="5P5HyQvD5sl2rqRKySWm-3" source="5P5HyQvD5sl2rqRKySWm-59" target="5P5HyQvD5sl2rqRKySWm-32">
          <mxGeometry relative="1" as="geometry">
            <mxPoint x="453" y="500" as="targetPoint" />
            <Array as="points">
              <mxPoint x="848" y="780" />
              <mxPoint x="460" y="780" />
              <mxPoint x="460" y="565" />
            </Array>
          </mxGeometry>
        </mxCell>
        <mxCell id="5P5HyQvD5sl2rqRKySWm-79" value="&amp;lt;&amp;lt;include&amp;gt;&amp;gt;" style="edgeLabel;html=1;align=center;verticalAlign=middle;resizable=0;points=[];" vertex="1" connectable="0" parent="5P5HyQvD5sl2rqRKySWm-78">
          <mxGeometry x="0.3987" y="4" relative="1" as="geometry">
            <mxPoint y="-1" as="offset" />
          </mxGeometry>
        </mxCell>
        <mxCell id="5P5HyQvD5sl2rqRKySWm-59" value="Time" style="ellipse;whiteSpace=wrap;html=1;" vertex="1" parent="5P5HyQvD5sl2rqRKySWm-3">
          <mxGeometry x="803" y="660" width="90" height="60" as="geometry" />
        </mxCell>
        <mxCell id="5P5HyQvD5sl2rqRKySWm-64" value="" style="edgeStyle=orthogonalEdgeStyle;rounded=0;orthogonalLoop=1;jettySize=auto;html=1;endArrow=block;endFill=0;" edge="1" parent="5P5HyQvD5sl2rqRKySWm-3" source="5P5HyQvD5sl2rqRKySWm-58" target="5P5HyQvD5sl2rqRKySWm-37">
          <mxGeometry relative="1" as="geometry" />
        </mxCell>
        <mxCell id="5P5HyQvD5sl2rqRKySWm-77" style="edgeStyle=orthogonalEdgeStyle;rounded=0;orthogonalLoop=1;jettySize=auto;html=1;exitX=0;exitY=0.5;exitDx=0;exitDy=0;entryX=0;entryY=1;entryDx=0;entryDy=0;dashed=1;endArrow=open;endFill=0;" edge="1" parent="5P5HyQvD5sl2rqRKySWm-3" source="5P5HyQvD5sl2rqRKySWm-58" target="5P5HyQvD5sl2rqRKySWm-32">
          <mxGeometry relative="1" as="geometry">
            <Array as="points">
              <mxPoint x="703" y="750" />
              <mxPoint x="370" y="750" />
              <mxPoint x="370" y="520" />
              <mxPoint x="411" y="520" />
              <mxPoint x="411" y="553" />
            </Array>
          </mxGeometry>
        </mxCell>
        <mxCell id="5P5HyQvD5sl2rqRKySWm-80" value="&amp;lt;&amp;lt; include&amp;gt;&amp;gt;" style="edgeLabel;html=1;align=center;verticalAlign=middle;resizable=0;points=[];" vertex="1" connectable="0" parent="5P5HyQvD5sl2rqRKySWm-77">
          <mxGeometry x="-0.8996" y="4" relative="1" as="geometry">
            <mxPoint as="offset" />
          </mxGeometry>
        </mxCell>
        <mxCell id="5P5HyQvD5sl2rqRKySWm-58" value="Date" style="ellipse;whiteSpace=wrap;html=1;" vertex="1" parent="5P5HyQvD5sl2rqRKySWm-3">
          <mxGeometry x="703" y="690" width="90" height="60" as="geometry" />
        </mxCell>
        <mxCell id="5P5HyQvD5sl2rqRKySWm-63" value="" style="edgeStyle=orthogonalEdgeStyle;rounded=0;orthogonalLoop=1;jettySize=auto;html=1;endArrow=block;endFill=0;" edge="1" parent="5P5HyQvD5sl2rqRKySWm-3" source="5P5HyQvD5sl2rqRKySWm-57" target="5P5HyQvD5sl2rqRKySWm-37">
          <mxGeometry relative="1" as="geometry" />
        </mxCell>
        <mxCell id="5P5HyQvD5sl2rqRKySWm-76" style="edgeStyle=orthogonalEdgeStyle;rounded=0;orthogonalLoop=1;jettySize=auto;html=1;exitX=0;exitY=0.5;exitDx=0;exitDy=0;entryX=1;entryY=1;entryDx=0;entryDy=0;dashed=1;endArrow=open;endFill=0;" edge="1" parent="5P5HyQvD5sl2rqRKySWm-3" source="5P5HyQvD5sl2rqRKySWm-57" target="5P5HyQvD5sl2rqRKySWm-32">
          <mxGeometry relative="1" as="geometry">
            <Array as="points">
              <mxPoint x="613" y="650" />
              <mxPoint x="520" y="650" />
              <mxPoint x="520" y="560" />
              <mxPoint x="513" y="560" />
              <mxPoint x="513" y="553" />
            </Array>
          </mxGeometry>
        </mxCell>
        <mxCell id="5P5HyQvD5sl2rqRKySWm-57" value="Name of movie" style="ellipse;whiteSpace=wrap;html=1;" vertex="1" parent="5P5HyQvD5sl2rqRKySWm-3">
          <mxGeometry x="613" y="645" width="90" height="60" as="geometry" />
        </mxCell>
        <mxCell id="5P5HyQvD5sl2rqRKySWm-72" style="edgeStyle=orthogonalEdgeStyle;rounded=0;orthogonalLoop=1;jettySize=auto;html=1;exitX=1;exitY=0.5;exitDx=0;exitDy=0;entryX=0.5;entryY=1;entryDx=0;entryDy=0;endArrow=block;endFill=0;" edge="1" parent="5P5HyQvD5sl2rqRKySWm-3" source="5P5HyQvD5sl2rqRKySWm-68" target="5P5HyQvD5sl2rqRKySWm-36">
          <mxGeometry relative="1" as="geometry" />
        </mxCell>
        <mxCell id="5P5HyQvD5sl2rqRKySWm-75" style="edgeStyle=orthogonalEdgeStyle;rounded=0;orthogonalLoop=1;jettySize=auto;html=1;exitX=0;exitY=0.5;exitDx=0;exitDy=0;dashed=1;endArrow=open;endFill=0;" edge="1" parent="5P5HyQvD5sl2rqRKySWm-3" source="5P5HyQvD5sl2rqRKySWm-68">
          <mxGeometry relative="1" as="geometry">
            <mxPoint x="503" y="490" as="targetPoint" />
            <Array as="points">
              <mxPoint x="503" y="380" />
            </Array>
          </mxGeometry>
        </mxCell>
        <mxCell id="5P5HyQvD5sl2rqRKySWm-68" value="year" style="ellipse;whiteSpace=wrap;html=1;" vertex="1" parent="5P5HyQvD5sl2rqRKySWm-3">
          <mxGeometry x="578" y="350" width="80" height="60" as="geometry" />
        </mxCell>
        <mxCell id="5P5HyQvD5sl2rqRKySWm-71" value="" style="edgeStyle=orthogonalEdgeStyle;rounded=0;orthogonalLoop=1;jettySize=auto;html=1;endArrow=block;endFill=0;" edge="1" parent="5P5HyQvD5sl2rqRKySWm-3" source="5P5HyQvD5sl2rqRKySWm-67" target="5P5HyQvD5sl2rqRKySWm-36">
          <mxGeometry relative="1" as="geometry" />
        </mxCell>
        <mxCell id="5P5HyQvD5sl2rqRKySWm-73" style="edgeStyle=orthogonalEdgeStyle;rounded=0;orthogonalLoop=1;jettySize=auto;html=1;exitX=0;exitY=0.5;exitDx=0;exitDy=0;endArrow=open;endFill=0;dashed=1;" edge="1" parent="5P5HyQvD5sl2rqRKySWm-3" source="5P5HyQvD5sl2rqRKySWm-67">
          <mxGeometry relative="1" as="geometry">
            <mxPoint x="431" y="500" as="targetPoint" />
            <Array as="points">
              <mxPoint x="573" y="330" />
              <mxPoint x="431" y="330" />
            </Array>
          </mxGeometry>
        </mxCell>
        <mxCell id="5P5HyQvD5sl2rqRKySWm-67" value="Director" style="ellipse;whiteSpace=wrap;html=1;" vertex="1" parent="5P5HyQvD5sl2rqRKySWm-3">
          <mxGeometry x="573" y="270" width="90" height="60" as="geometry" />
        </mxCell>
        <mxCell id="5P5HyQvD5sl2rqRKySWm-70" value="" style="edgeStyle=orthogonalEdgeStyle;rounded=0;orthogonalLoop=1;jettySize=auto;html=1;endArrow=block;endFill=0;" edge="1" parent="5P5HyQvD5sl2rqRKySWm-3" source="5P5HyQvD5sl2rqRKySWm-66" target="5P5HyQvD5sl2rqRKySWm-36">
          <mxGeometry relative="1" as="geometry" />
        </mxCell>
        <mxCell id="5P5HyQvD5sl2rqRKySWm-74" style="edgeStyle=orthogonalEdgeStyle;rounded=0;orthogonalLoop=1;jettySize=auto;html=1;exitX=0;exitY=0.5;exitDx=0;exitDy=0;entryX=0.5;entryY=0;entryDx=0;entryDy=0;dashed=1;endArrow=open;endFill=0;" edge="1" parent="5P5HyQvD5sl2rqRKySWm-3" source="5P5HyQvD5sl2rqRKySWm-66" target="5P5HyQvD5sl2rqRKySWm-32">
          <mxGeometry relative="1" as="geometry" />
        </mxCell>
        <mxCell id="5P5HyQvD5sl2rqRKySWm-66" value="Name of movie" style="ellipse;whiteSpace=wrap;html=1;" vertex="1" parent="5P5HyQvD5sl2rqRKySWm-3">
          <mxGeometry x="573" y="190" width="90" height="60" as="geometry" />
        </mxCell>
        <mxCell id="5P5HyQvD5sl2rqRKySWm-82" value="" style="edgeStyle=orthogonalEdgeStyle;rounded=0;orthogonalLoop=1;jettySize=auto;html=1;endArrow=blockThin;endFill=0;" edge="1" parent="5P5HyQvD5sl2rqRKySWm-3" source="5P5HyQvD5sl2rqRKySWm-81" target="5P5HyQvD5sl2rqRKySWm-10">
          <mxGeometry relative="1" as="geometry" />
        </mxCell>
        <mxCell id="5P5HyQvD5sl2rqRKySWm-81" value="Ticket Number" style="ellipse;whiteSpace=wrap;html=1;" vertex="1" parent="5P5HyQvD5sl2rqRKySWm-3">
          <mxGeometry x="150" y="140" width="90" height="60" as="geometry" />
        </mxCell>
        <mxCell id="5P5HyQvD5sl2rqRKySWm-86" style="edgeStyle=orthogonalEdgeStyle;rounded=0;orthogonalLoop=1;jettySize=auto;html=1;exitX=1;exitY=0.5;exitDx=0;exitDy=0;endArrow=block;endFill=0;dashed=1;entryX=0;entryY=0.5;entryDx=0;entryDy=0;" edge="1" parent="5P5HyQvD5sl2rqRKySWm-3" source="5P5HyQvD5sl2rqRKySWm-81" target="5P5HyQvD5sl2rqRKySWm-84">
          <mxGeometry relative="1" as="geometry" />
        </mxCell>
        <mxCell id="5P5HyQvD5sl2rqRKySWm-87" value="&amp;lt;&amp;lt;include&amp;gt;&amp;gt;" style="edgeLabel;html=1;align=center;verticalAlign=middle;resizable=0;points=[];" vertex="1" connectable="0" parent="5P5HyQvD5sl2rqRKySWm-86">
          <mxGeometry x="-0.2357" y="2" relative="1" as="geometry">
            <mxPoint as="offset" />
          </mxGeometry>
        </mxCell>
        <mxCell id="5P5HyQvD5sl2rqRKySWm-84" value="Yes" style="ellipse;whiteSpace=wrap;html=1;" vertex="1" parent="5P5HyQvD5sl2rqRKySWm-3">
          <mxGeometry x="264" y="60" width="90" height="60" as="geometry" />
        </mxCell>
        <mxCell id="5P5HyQvD5sl2rqRKySWm-89" value="&amp;lt;&amp;lt;exclude&amp;gt;&amp;gt;" style="edgeStyle=orthogonalEdgeStyle;rounded=0;orthogonalLoop=1;jettySize=auto;html=1;exitX=0;exitY=0.5;exitDx=0;exitDy=0;entryX=0.5;entryY=1;entryDx=0;entryDy=0;dashed=1;endArrow=blockThin;endFill=0;" edge="1" parent="5P5HyQvD5sl2rqRKySWm-3" source="5P5HyQvD5sl2rqRKySWm-83" target="5P5HyQvD5sl2rqRKySWm-81">
          <mxGeometry relative="1" as="geometry" />
        </mxCell>
        <mxCell id="5P5HyQvD5sl2rqRKySWm-83" value="No&lt;br&gt;(if not exist)" style="ellipse;whiteSpace=wrap;html=1;" vertex="1" parent="5P5HyQvD5sl2rqRKySWm-3">
          <mxGeometry x="264" y="200" width="90" height="60" as="geometry" />
        </mxCell>
        <mxCell id="5P5HyQvD5sl2rqRKySWm-90" value="movie list" style="ellipse;whiteSpace=wrap;html=1;" vertex="1" parent="5P5HyQvD5sl2rqRKySWm-3">
          <mxGeometry x="170" y="260" width="90" height="60" as="geometry" />
        </mxCell>
        <mxCell id="5P5HyQvD5sl2rqRKySWm-91" value="" style="edgeStyle=orthogonalEdgeStyle;rounded=0;orthogonalLoop=1;jettySize=auto;html=1;exitX=1;exitY=0.5;exitDx=0;exitDy=0;dashed=1;endArrow=open;endFill=0;" edge="1" parent="5P5HyQvD5sl2rqRKySWm-3" source="5P5HyQvD5sl2rqRKySWm-11" target="5P5HyQvD5sl2rqRKySWm-90">
          <mxGeometry relative="1" as="geometry">
            <mxPoint x="170" y="320" as="sourcePoint" />
            <mxPoint x="533" y="625" as="targetPoint" />
            <Array as="points" />
          </mxGeometry>
        </mxCell>
        <mxCell id="5P5HyQvD5sl2rqRKySWm-92" style="edgeStyle=orthogonalEdgeStyle;rounded=0;orthogonalLoop=1;jettySize=auto;html=1;exitX=0;exitY=0;exitDx=0;exitDy=0;entryX=0.5;entryY=1;entryDx=0;entryDy=0;endArrow=none;endFill=0;" edge="1" parent="5P5HyQvD5sl2rqRKySWm-3" source="5P5HyQvD5sl2rqRKySWm-8" target="5P5HyQvD5sl2rqRKySWm-14">
          <mxGeometry relative="1" as="geometry">
            <Array as="points">
              <mxPoint x="-10" y="69" />
              <mxPoint x="-10" y="-20" />
              <mxPoint x="1075" y="-20" />
              <mxPoint x="1075" y="900" />
              <mxPoint x="65" y="900" />
            </Array>
          </mxGeometry>
        </mxCell>
        <mxCell id="5P5HyQvD5sl2rqRKySWm-17" style="edgeStyle=orthogonalEdgeStyle;rounded=0;orthogonalLoop=1;jettySize=auto;html=1;exitX=1;exitY=0.3333333333333333;exitDx=0;exitDy=0;exitPerimeter=0;entryX=0;entryY=0.5;entryDx=0;entryDy=0;endArrow=none;endFill=0;" edge="1" parent="1" source="5P5HyQvD5sl2rqRKySWm-4" target="5P5HyQvD5sl2rqRKySWm-8">
          <mxGeometry relative="1" as="geometry">
            <Array as="points">
              <mxPoint x="-20" y="220" />
            </Array>
          </mxGeometry>
        </mxCell>
        <mxCell id="5P5HyQvD5sl2rqRKySWm-18" style="edgeStyle=orthogonalEdgeStyle;rounded=0;orthogonalLoop=1;jettySize=auto;html=1;exitX=1;exitY=0.3333333333333333;exitDx=0;exitDy=0;exitPerimeter=0;endArrow=none;endFill=0;entryX=0;entryY=0.5;entryDx=0;entryDy=0;" edge="1" parent="1" source="5P5HyQvD5sl2rqRKySWm-4" target="5P5HyQvD5sl2rqRKySWm-10">
          <mxGeometry relative="1" as="geometry">
            <Array as="points">
              <mxPoint x="-150" y="430" />
              <mxPoint x="-30" y="430" />
              <mxPoint x="-30" y="320" />
            </Array>
          </mxGeometry>
        </mxCell>
        <mxCell id="5P5HyQvD5sl2rqRKySWm-19" style="edgeStyle=orthogonalEdgeStyle;rounded=0;orthogonalLoop=1;jettySize=auto;html=1;exitX=1;exitY=0.3333333333333333;exitDx=0;exitDy=0;exitPerimeter=0;entryX=0;entryY=0.5;entryDx=0;entryDy=0;endArrow=none;endFill=0;" edge="1" parent="1" source="5P5HyQvD5sl2rqRKySWm-4" target="5P5HyQvD5sl2rqRKySWm-11">
          <mxGeometry relative="1" as="geometry">
            <Array as="points">
              <mxPoint x="-150" y="480" />
              <mxPoint x="-30" y="480" />
              <mxPoint x="-30" y="460" />
            </Array>
          </mxGeometry>
        </mxCell>
        <mxCell id="5P5HyQvD5sl2rqRKySWm-45" style="edgeStyle=orthogonalEdgeStyle;rounded=0;orthogonalLoop=1;jettySize=auto;html=1;exitX=1;exitY=0.3333333333333333;exitDx=0;exitDy=0;exitPerimeter=0;entryX=0.5;entryY=0;entryDx=0;entryDy=0;endArrow=none;endFill=0;" edge="1" parent="1" source="5P5HyQvD5sl2rqRKySWm-4" target="5P5HyQvD5sl2rqRKySWm-14">
          <mxGeometry relative="1" as="geometry">
            <Array as="points">
              <mxPoint x="-20" y="560" />
              <mxPoint x="-20" y="640" />
              <mxPoint x="130" y="640" />
              <mxPoint x="130" y="730" />
            </Array>
          </mxGeometry>
        </mxCell>
        <mxCell id="5P5HyQvD5sl2rqRKySWm-46" style="edgeStyle=orthogonalEdgeStyle;rounded=0;orthogonalLoop=1;jettySize=auto;html=1;exitX=1;exitY=0.3333333333333333;exitDx=0;exitDy=0;exitPerimeter=0;endArrow=none;endFill=0;" edge="1" parent="1" source="5P5HyQvD5sl2rqRKySWm-4" target="5P5HyQvD5sl2rqRKySWm-13">
          <mxGeometry relative="1" as="geometry">
            <mxPoint x="197" y="640" as="targetPoint" />
            <Array as="points">
              <mxPoint x="-150" y="610" />
              <mxPoint x="122" y="610" />
            </Array>
          </mxGeometry>
        </mxCell>
        <mxCell id="5P5HyQvD5sl2rqRKySWm-4" value="Customer" style="shape=umlActor;verticalLabelPosition=bottom;verticalAlign=top;html=1;outlineConnect=0;fillColor=#e6d0de;gradientColor=#d5739d;strokeColor=#996185;" vertex="1" parent="1">
          <mxGeometry x="-210" y="490" width="30" height="60" as="geometry" />
        </mxCell>
        <mxCell id="5P5HyQvD5sl2rqRKySWm-26" style="edgeStyle=orthogonalEdgeStyle;rounded=0;orthogonalLoop=1;jettySize=auto;html=1;exitX=0;exitY=0.3333333333333333;exitDx=0;exitDy=0;exitPerimeter=0;entryX=1;entryY=0.5;entryDx=0;entryDy=0;endArrow=none;endFill=0;" edge="1" parent="1" source="5P5HyQvD5sl2rqRKySWm-5" target="5P5HyQvD5sl2rqRKySWm-9">
          <mxGeometry relative="1" as="geometry" />
        </mxCell>
        <mxCell id="5P5HyQvD5sl2rqRKySWm-93" style="edgeStyle=orthogonalEdgeStyle;rounded=0;orthogonalLoop=1;jettySize=auto;html=1;exitX=0.5;exitY=0;exitDx=0;exitDy=0;exitPerimeter=0;entryX=0.5;entryY=0;entryDx=0;entryDy=0;endArrow=none;endFill=0;" edge="1" parent="1" source="5P5HyQvD5sl2rqRKySWm-5" target="5P5HyQvD5sl2rqRKySWm-10">
          <mxGeometry relative="1" as="geometry">
            <Array as="points">
              <mxPoint x="1135" y="10" />
              <mxPoint x="40" y="10" />
              <mxPoint x="40" y="190" />
            </Array>
          </mxGeometry>
        </mxCell>
        <mxCell id="5P5HyQvD5sl2rqRKySWm-94" style="edgeStyle=orthogonalEdgeStyle;rounded=0;orthogonalLoop=1;jettySize=auto;html=1;exitX=0.5;exitY=0;exitDx=0;exitDy=0;exitPerimeter=0;entryX=0.5;entryY=0;entryDx=0;entryDy=0;endArrow=none;endFill=0;" edge="1" parent="1" source="5P5HyQvD5sl2rqRKySWm-5" target="5P5HyQvD5sl2rqRKySWm-11">
          <mxGeometry relative="1" as="geometry">
            <Array as="points">
              <mxPoint x="1135" y="-10" />
              <mxPoint x="30" y="-10" />
              <mxPoint x="30" y="280" />
            </Array>
          </mxGeometry>
        </mxCell>
        <mxCell id="5P5HyQvD5sl2rqRKySWm-95" style="edgeStyle=orthogonalEdgeStyle;rounded=0;orthogonalLoop=1;jettySize=auto;html=1;exitX=0.5;exitY=0;exitDx=0;exitDy=0;exitPerimeter=0;entryX=0.5;entryY=0;entryDx=0;entryDy=0;endArrow=none;endFill=0;" edge="1" parent="1" source="5P5HyQvD5sl2rqRKySWm-5" target="5P5HyQvD5sl2rqRKySWm-13">
          <mxGeometry relative="1" as="geometry">
            <Array as="points">
              <mxPoint x="1135" y="-30" />
              <mxPoint x="20" y="-30" />
              <mxPoint x="20" y="380" />
            </Array>
          </mxGeometry>
        </mxCell>
        <mxCell id="5P5HyQvD5sl2rqRKySWm-5" value="Employee" style="shape=umlActor;verticalLabelPosition=bottom;verticalAlign=top;html=1;outlineConnect=0;fillColor=#fff2cc;gradientColor=#ffd966;strokeColor=#d6b656;" vertex="1" parent="1">
          <mxGeometry x="1120" y="280" width="30" height="60" as="geometry" />
        </mxCell>
      </root>
    </mxGraphModel>
  </diagram>
</mxfile>
